# xmcd
#
# Track frame offsets: 
#        150
#        9663
#        22705
#        35913
#        42578
#        60442
#        81712
#        106091
#        128976
#        153222
#        175656
#        199779
#        219930
#
# Disc length: 3269 seconds
#
# Revision: 0
# Processed by: cddbd v1.5.2PL0 Copyright (c) Steve Scherf et al.
# Submitted via: ExactAudioCopyFreeDBPlugin 1.0
#
DISCID=a60cc30d
DTITLE=Bill Carrithers - Love and Longing
DYEAR=1900
DGENRE=Jazz
TTITLE0=Love
TTITLE1=Mexicali rose
TTITLE2=Moonlight becoms you
TTITLE3=Longing
TTITLE4=The L and N don't stop here anymore
TTITLE5=A cottage for sale
TTITLE6=Love - Peg
TTITLE7=Three coins in the fountain
TTITLE8=So in love
TTITLE9=Longing too
TTITLE10=Once in a while
TTITLE11=Trade Winds
TTITLE12=Skylark
EXTD=
EXTT0=
EXTT1=
EXTT2=
EXTT3=
EXTT4=
EXTT5=
EXTT6=
EXTT7=
EXTT8=
EXTT9=
EXTT10=
EXTT11=
EXTT12=
PLAYORDER=
